<svg xmlns="http://www.w3.org/2000/svg" viewBox="0 0 441.21 130"><defs><style>.cls-1{fill:#fefefe;}.cls-2{fill:#bb6125;}</style></defs><g id="Capa_2" data-name="Capa 2"><g id="Capa_1-2" data-name="Capa 1"><path class="cls-1" d="M101.44,240.78v-3.42h-.12c-.79,1.69-3.5,3.83-7.41,3.83-5.07,0-10.38-3.75-10.38-11.12S88.84,219,93.91,219c3.91,0,6.62,2.14,7.41,3.83h.12V211.55H106v29.23Zm-6.67-3.71a7,7,0,1,0-6.75-7,6.61,6.61,0,0,0,6.75,7"/><path class="cls-1" d="M109.47,230.08c0-7.21,5.31-11.12,10.74-11.12s11.36,3.87,10.34,12.84h-16.8c.7,3.71,3.63,5.6,7.29,5.6a8.43,8.43,0,0,0,5.93-2.22l2.14,2.22a10.85,10.85,0,0,1-8.57,3.79c-5.8,0-11.07-4-11.07-11.11m17-1.65c-.24-3.71-3.21-5.6-6.26-5.6a6.43,6.43,0,0,0-6.54,5.6Z"/><polygon class="cls-1" points="149.16 215.87 141.79 215.87 141.79 211.55 161.18 211.55 161.18 215.87 153.81 215.87 153.81 240.78 149.16 240.78 149.16 215.87"/><path class="cls-1" d="M159.49,230.07c0-7.36,5.31-11.11,10.37-11.11,3.92,0,6.63,2.14,7.41,3.83h.13v-3.42h4.53v21.41H177.4v-3.42h-.13c-.78,1.69-3.49,3.83-7.41,3.83-5.06,0-10.37-3.75-10.37-11.12m11.24,7a7,7,0,1,0-6.75-7,6.61,6.61,0,0,0,6.75,7"/><path class="cls-1" d="M200.33,228.51c0-3.46-1.69-5.43-4.53-5.43s-4.82,2-4.82,5.43v12.27h-4.52V219.37H191v3a7,7,0,0,1,6.34-3.46,6.86,6.86,0,0,1,6.51,3.91A7.78,7.78,0,0,1,211,219c4.49,0,7.78,2.84,7.78,9.3v12.52H214.2V228.51c0-3.46-1.68-5.43-4.53-5.43s-4.77,2-4.77,5.43v12.27h-4.57Z"/><path class="cls-1" d="M222.23,230.07c0-7.36,5.31-11.11,10.38-11.11,3.91,0,6.62,2.14,7.41,3.83h.12v-3.42h4.53v21.41h-4.53v-3.42H240c-.79,1.69-3.5,3.83-7.41,3.83-5.07,0-10.38-3.75-10.38-11.12m11.24,7a7,7,0,1,0-6.75-7,6.62,6.62,0,0,0,6.75,7"/><path class="cls-1" d="M268.8,240.78h-4.53v-3.21a7.61,7.61,0,0,1-6.88,3.62c-4.4,0-8.19-2.76-8.19-9.22v-12.6h4.57v11.86c0,3.74,2.06,5.84,5.23,5.84s5.27-2.1,5.27-5.84V219.37h4.53Z"/><rect class="cls-1" x="273.32" y="211.55" width="4.53" height="29.23"/><path class="cls-1" d="M282.38,211.55h4.53v4.08h-4.53Zm0,7.82h4.53v21.41h-4.53Z"/><path class="cls-1" d="M291.44,219.37H296v3.42h.13c.78-1.69,3.5-3.83,7.41-3.83,5.06,0,10.37,3.75,10.37,11.11s-5.31,11.12-10.37,11.12c-3.91,0-6.63-2.14-7.41-3.83H296V248.6h-4.52Zm11.19,17.7a7,7,0,1,0-6.79-7,6.61,6.61,0,0,0,6.79,7"/><path class="cls-1" d="M316.35,230.07c0-7.36,5.31-11.11,10.37-11.11,3.91,0,6.63,2.14,7.41,3.83h.12v-3.42h4.53v21.41h-4.53v-3.42h-.12c-.78,1.69-3.5,3.83-7.41,3.83-5.06,0-10.37-3.75-10.37-11.12m11.24,7a7,7,0,1,0-6.76-7,6.62,6.62,0,0,0,6.76,7"/><path class="cls-1" d="M342.08,235.3l3.7-1a4,4,0,0,0,4,3.26c1.68,0,3.33-.87,3.33-2.76,0-1.36-.9-2.18-3-3l-2.31-.86c-3.54-1.36-5-3.54-5-6.05,0-3.63,3.17-5.89,7-5.89,3.66,0,6.34,2,7.08,5.15l-3.58.94a3.32,3.32,0,0,0-3.3-2.47c-1.64,0-2.8.91-2.8,2.31,0,1.11.7,2.06,2.64,2.76l2.1.82c3,1.11,5.64,2.63,5.64,6.3,0,4.28-3.63,6.42-7.83,6.42s-7.11-2.1-7.77-5.89"/><path class="cls-1" d="M247.93.16H207.08l-12,29.91v33.5c0,21.56-11.06,48.16-35.74,59h33.6l11.22-29.11h46l11.41,29.11h35.33ZM215.54,64,227,35.67l12,28.34Z"/><polygon class="cls-1" points="302.49 29.59 268.08 29.57 256.28 0.14 369.46 0.19 369.37 29.59 334.93 29.57 335.03 122.47 302.68 122.47 302.49 29.59"/><path class="cls-2" d="M71.76.05l32.36,0V62.46c0,13.56,7.59,29.82,25.13,29.82,17.35,0,24.94-16.44,24.94-29.82V0l32.35,0V62.46c0,26.21-17.35,60-57.29,60-40.13,0-57.48-33.62-57.48-60Z"/><path class="cls-1" d="M146.43,66.47a17.29,17.29,0,1,1-17.29-17.29,17.3,17.3,0,0,1,17.29,17.29"/><path class="cls-1" d="M0,177.43V159.27H6.5v18.2c0,4.36,2.68,5.35,4.78,5.35s4.77-1,4.77-5.35v-18.2h6.51v18.16c0,7.49-5.06,11.48-11.28,11.48S0,184.92,0,177.43"/><path class="cls-1" d="M26.43,167.1h6.38v2.71a7.23,7.23,0,0,1,6.34-3.12c4.33,0,8,2.67,8,9.22V188.5H40.76V177c0-2.68-1.36-4.66-4-4.66s-3.95,2-3.95,4.66V188.5H26.43Z"/><path class="cls-1" d="M51,159.27h6.38v5.56H51Zm0,7.83h6.38v21.4H51Z"/><polygon class="cls-1" points="59.82 167.1 66.33 167.1 71.76 181.01 77.19 167.1 83.7 167.1 74.72 188.5 68.79 188.5 59.82 167.1"/><path class="cls-1" d="M83.86,177.84a10.68,10.68,0,0,1,10.91-11.16c5.44,0,11.82,3.79,10.46,13.59H90c.87,2.31,3,3.46,5.85,3.46a8.09,8.09,0,0,0,5.15-1.65l2.88,3a11,11,0,0,1-8.73,3.83c-5.93,0-11.28-4-11.28-11.08m15.77-2.14A4.59,4.59,0,0,0,94.85,172a4.92,4.92,0,0,0-5,3.66Z"/><path class="cls-1" d="M108.28,167.1h6.38v5.8c.7-3.46,2.75-6.21,6.63-6.21a5.17,5.17,0,0,1,1.52.2v6.05a9,9,0,0,0-1.48-.12c-4.24,0-6.67,2.84-6.67,6.87v8.81h-6.38Z"/><path class="cls-1" d="M124,182.82l5.06-1.35a3.13,3.13,0,0,0,3.1,2.46c1.15,0,2.22-.57,2.22-1.77,0-.69-.41-1.35-1.81-1.81l-2.89-1.07c-3.54-1.28-5.06-3.58-5.06-6.25,0-4,3.58-6.34,7.78-6.34,4,0,7,2.26,7.7,5.72l-5,1.23a2.51,2.51,0,0,0-2.47-2c-1.24,0-1.85.73-1.85,1.48s.41,1.36,1.85,1.81l2.67,1c2.31.78,5.35,2.39,5.35,6.25,0,4.33-3.66,6.75-8.43,6.75-4.32,0-7.58-2-8.24-6.09"/><path class="cls-1" d="M143.52,159.27h6.38v5.56h-6.38Zm0,7.83h6.38v21.4h-6.38Z"/><path class="cls-1" d="M169.41,188.5v-2.43h-.12c-.33.79-2.55,2.84-6.34,2.84-4.86,0-10.21-3.66-10.21-11.11s5.35-11.12,10.21-11.12c3.79,0,6,2.06,6.34,2.85h.12V159.27h6.38V188.5Zm-5.15-5.27A5.43,5.43,0,1,0,159,177.8a5.16,5.16,0,0,0,5.22,5.43"/><path class="cls-1" d="M178.63,177.8c0-7.45,5.36-11.12,10.21-11.12,3.79,0,6,2.06,6.34,2.85h.13V167.1h6.38v21.4h-6.38v-2.43h-.13c-.33.79-2.55,2.84-6.34,2.84-4.85,0-10.21-3.66-10.21-11.11m11.53,5.43a5.43,5.43,0,1,0-5.23-5.43,5.15,5.15,0,0,0,5.23,5.43"/><path class="cls-1" d="M221.2,188.5v-2.43h-.12c-.33.79-2.55,2.84-6.34,2.84-4.86,0-10.21-3.66-10.21-11.11s5.35-11.12,10.21-11.12c3.79,0,6,2.06,6.34,2.85h.12V159.27h6.39V188.5Zm-5.14-5.27a5.43,5.43,0,1,0-5.23-5.43,5.15,5.15,0,0,0,5.23,5.43"/><path class="cls-1" d="M256.2,159.27l11.15,29.23h-7l-1.64-4.65H246.81l-1.65,4.65h-7l11.16-29.23Zm.28,18.57-3.74-10.54L249,177.84Z"/><path class="cls-1" d="M288.72,188.5h-6.38v-2.71a7.23,7.23,0,0,1-6.34,3.12c-4.33,0-8-2.67-8-9.22V167.1h6.38v11.48c0,2.68,1.36,4.66,4,4.66s3.95-2,3.95-4.66V167.1h6.38Z"/><path class="cls-1" d="M294.73,181.92v-9.76h-3.17V167.1h3.17v-5.48h6.38v5.48h4.49v5.06h-4.49v8.73c0,1.07.62,2.22,2.56,2.22a6.86,6.86,0,0,0,2-.33v4.86c-.82.82-2.63,1.11-4.12,1.11-3.95,0-6.83-1.94-6.83-6.83"/><path class="cls-1" d="M307.41,177.8c0-7.29,5.76-11.12,11.36-11.12s11.37,3.83,11.37,11.12-5.77,11.12-11.37,11.12-11.36-3.83-11.36-11.12m11.36,5.35a5.36,5.36,0,1,0-5.06-5.35,5,5,0,0,0,5.06,5.35m2-25.11h5l-4.37,6.5h-4.9Z"/><path class="cls-1" d="M333,167.1h6.38v2.71a7.21,7.21,0,0,1,6.34-3.12c4.32,0,8,2.67,8,9.22V188.5H347.3V177c0-2.68-1.35-4.66-4-4.66s-3.95,2-3.95,4.66V188.5H333Z"/><path class="cls-1" d="M356.53,177.8c0-7.29,5.76-11.11,11.36-11.11s11.36,3.82,11.36,11.11-5.76,11.11-11.36,11.11-11.36-3.82-11.36-11.11m11.36,5.35a5.36,5.36,0,1,0-5.06-5.35,5,5,0,0,0,5.06,5.35"/><path class="cls-1" d="M395.51,176.4c0-2.72-1.48-4-3.41-4s-3.63,1.32-3.63,4v12.1h-6.38V167.1h6.38v2.63a6.8,6.8,0,0,1,6-3,6.7,6.7,0,0,1,6.05,3.37,8.08,8.08,0,0,1,7-3.37c4.53,0,7.83,2.88,7.83,9.46V188.5h-6.39V176.4c0-2.72-1.48-4-3.41-4s-3.62,1.32-3.62,4v12.1h-6.39Z"/><path class="cls-1" d="M418.16,177.8c0-7.45,5.35-11.12,10.21-11.12,3.79,0,6,2.06,6.34,2.85h.12V167.1h6.38v21.4h-6.38v-2.43h-.12c-.33.79-2.55,2.84-6.34,2.84-4.86,0-10.21-3.66-10.21-11.11m11.53,5.43a5.43,5.43,0,1,0-5.23-5.43,5.15,5.15,0,0,0,5.23,5.43"/></g></g></svg>